<svg preserveAspectRatio="none" overflow="visible" style="display: block;" width="50" height="50" viewBox="0 0 50 50" fill="none" xmlns="http://www.w3.org/2000/svg">
<g id="Icon / pin">
<path id="Vector" d="M41.6667 20.8333C41.6667 31.25 25 43.75 25 43.75C25 43.75 8.33333 31.25 8.33333 20.8333C8.33333 16.4131 10.0893 12.1738 13.2149 9.04822C16.3405 5.92262 20.5797 4.16667 25 4.16667C29.4203 4.16667 33.6595 5.92262 36.7851 9.04822C39.9107 12.1738 41.6667 16.4131 41.6667 20.8333Z" stroke="#7A1F2B" stroke-width="3.75" stroke-linecap="round" stroke-linejoin="round"/>
<path id="Vector_2" d="M25 26.0417C27.8765 26.0417 30.2083 23.7098 30.2083 20.8333C30.2083 17.9569 27.8765 15.625 25 15.625C22.1235 15.625 19.7917 17.9569 19.7917 20.8333C19.7917 23.7098 22.1235 26.0417 25 26.0417Z" stroke="#7A1F2B" stroke-width="3.75" stroke-linecap="round" stroke-linejoin="round"/>
</g>
</svg>
